<?xml version="1.0" standalone="no"?>
<svg xmlns:xlink="http://www.w3.org/1999/xlink" id="wave" style="transform:rotate(0deg); transition: 0.3s" viewBox="0 0 1440 490" version="1.1" xmlns="http://www.w3.org/2000/svg">
	<defs>
		<linearGradient id="sw-gradient-0" x1="0" x2="0" y1="1" y2="0">
			<stop stop-color="rgba(171.223, 241.795, 170.048, 1)" offset="0%"/>
			<stop stop-color="rgba(53.98, 205.366, 82.274, 1)" offset="100%"/>
		</linearGradient>
	</defs>
	<path style="transform:translate(0, 0px); opacity:1" fill="url(#sw-gradient-0)" d="M0,441L48,375.7C96,310,192,180,288,163.3C384,147,480,245,576,236.8C672,229,768,114,864,130.7C960,147,1056,294,1152,294C1248,294,1344,147,1440,73.5C1536,0,1632,0,1728,8.2C1824,16,1920,33,2016,81.7C2112,131,2208,212,2304,277.7C2400,343,2496,392,2592,392C2688,392,2784,343,2880,318.5C2976,294,3072,294,3168,302.2C3264,310,3360,327,3456,302.2C3552,278,3648,212,3744,220.5C3840,229,3936,310,4032,285.8C4128,261,4224,131,4320,130.7C4416,131,4512,261,4608,310.3C4704,359,4800,327,4896,294C4992,261,5088,229,5184,187.8C5280,147,5376,98,5472,89.8C5568,82,5664,114,5760,155.2C5856,196,5952,245,6048,285.8C6144,327,6240,359,6336,383.8C6432,408,6528,425,6624,392C6720,359,6816,278,6864,236.8L6912,196L6912,490L6864,490C6816,490,6720,490,6624,490C6528,490,6432,490,6336,490C6240,490,6144,490,6048,490C5952,490,5856,490,5760,490C5664,490,5568,490,5472,490C5376,490,5280,490,5184,490C5088,490,4992,490,4896,490C4800,490,4704,490,4608,490C4512,490,4416,490,4320,490C4224,490,4128,490,4032,490C3936,490,3840,490,3744,490C3648,490,3552,490,3456,490C3360,490,3264,490,3168,490C3072,490,2976,490,2880,490C2784,490,2688,490,2592,490C2496,490,2400,490,2304,490C2208,490,2112,490,2016,490C1920,490,1824,490,1728,490C1632,490,1536,490,1440,490C1344,490,1248,490,1152,490C1056,490,960,490,864,490C768,490,672,490,576,490C480,490,384,490,288,490C192,490,96,490,48,490L0,490Z"/>
	<defs>
		<linearGradient id="sw-gradient-1" x1="0" x2="0" y1="1" y2="0">
			<stop stop-color="rgba(243, 106, 62, 1)" offset="0%"/>
			<stop stop-color="rgba(255, 179, 11, 1)" offset="100%"/>
		</linearGradient>
	</defs>
	<path style="transform:translate(0, 50px); opacity:0.9" fill="url(#sw-gradient-1)" d="M0,441L48,424.7C96,408,192,376,288,318.5C384,261,480,180,576,163.3C672,147,768,196,864,187.8C960,180,1056,114,1152,147C1248,180,1344,310,1440,375.7C1536,441,1632,441,1728,408.3C1824,376,1920,310,2016,285.8C2112,261,2208,278,2304,285.8C2400,294,2496,294,2592,245C2688,196,2784,98,2880,73.5C2976,49,3072,98,3168,147C3264,196,3360,245,3456,220.5C3552,196,3648,98,3744,114.3C3840,131,3936,261,4032,285.8C4128,310,4224,229,4320,196C4416,163,4512,180,4608,179.7C4704,180,4800,163,4896,155.2C4992,147,5088,147,5184,196C5280,245,5376,343,5472,383.8C5568,425,5664,408,5760,408.3C5856,408,5952,425,6048,367.5C6144,310,6240,180,6336,163.3C6432,147,6528,245,6624,245C6720,245,6816,147,6864,98L6912,49L6912,490L6864,490C6816,490,6720,490,6624,490C6528,490,6432,490,6336,490C6240,490,6144,490,6048,490C5952,490,5856,490,5760,490C5664,490,5568,490,5472,490C5376,490,5280,490,5184,490C5088,490,4992,490,4896,490C4800,490,4704,490,4608,490C4512,490,4416,490,4320,490C4224,490,4128,490,4032,490C3936,490,3840,490,3744,490C3648,490,3552,490,3456,490C3360,490,3264,490,3168,490C3072,490,2976,490,2880,490C2784,490,2688,490,2592,490C2496,490,2400,490,2304,490C2208,490,2112,490,2016,490C1920,490,1824,490,1728,490C1632,490,1536,490,1440,490C1344,490,1248,490,1152,490C1056,490,960,490,864,490C768,490,672,490,576,490C480,490,384,490,288,490C192,490,96,490,48,490L0,490Z"/>
	<defs>
		<linearGradient id="sw-gradient-2" x1="0" x2="0" y1="1" y2="0">
			<stop stop-color="rgba(17.28, 98.662, 225.857, 1)" offset="0%"/>
			<stop stop-color="rgba(55.507, 200.93, 255, 1)" offset="100%"/>
		</linearGradient>
	</defs>
	<path style="transform:translate(0, 100px); opacity:0.8" fill="url(#sw-gradient-2)" d="M0,245L48,220.5C96,196,192,147,288,147C384,147,480,196,576,179.7C672,163,768,82,864,114.3C960,147,1056,294,1152,367.5C1248,441,1344,441,1440,392C1536,343,1632,245,1728,220.5C1824,196,1920,245,2016,220.5C2112,196,2208,98,2304,98C2400,98,2496,196,2592,212.3C2688,229,2784,163,2880,130.7C2976,98,3072,98,3168,130.7C3264,163,3360,229,3456,236.8C3552,245,3648,196,3744,155.2C3840,114,3936,82,4032,98C4128,114,4224,180,4320,187.8C4416,196,4512,147,4608,138.8C4704,131,4800,163,4896,204.2C4992,245,5088,294,5184,277.7C5280,261,5376,180,5472,130.7C5568,82,5664,65,5760,114.3C5856,163,5952,278,6048,285.8C6144,294,6240,196,6336,130.7C6432,65,6528,33,6624,65.3C6720,98,6816,196,6864,245L6912,294L6912,490L6864,490C6816,490,6720,490,6624,490C6528,490,6432,490,6336,490C6240,490,6144,490,6048,490C5952,490,5856,490,5760,490C5664,490,5568,490,5472,490C5376,490,5280,490,5184,490C5088,490,4992,490,4896,490C4800,490,4704,490,4608,490C4512,490,4416,490,4320,490C4224,490,4128,490,4032,490C3936,490,3840,490,3744,490C3648,490,3552,490,3456,490C3360,490,3264,490,3168,490C3072,490,2976,490,2880,490C2784,490,2688,490,2592,490C2496,490,2400,490,2304,490C2208,490,2112,490,2016,490C1920,490,1824,490,1728,490C1632,490,1536,490,1440,490C1344,490,1248,490,1152,490C1056,490,960,490,864,490C768,490,672,490,576,490C480,490,384,490,288,490C192,490,96,490,48,490L0,490Z"/>
</svg>